<?xml version="1.0" standalone="no"?>
<!DOCTYPE svg PUBLIC "-//W3C//DTD SVG 20010904//EN"
 "http://www.w3.org/TR/2001/REC-SVG-20010904/DTD/svg10.dtd">
<svg version="1.0" xmlns="http://www.w3.org/2000/svg"
 width="430.000000pt" height="451.000000pt" viewBox="0 0 430.000000 451.000000"
 preserveAspectRatio="xMidYMid meet">

<g transform="translate(0.000000,451.000000) scale(0.100000,-0.100000)"
fill="#000000" stroke="none">
<path d="M0 2255 l0 -2255 2150 0 2150 0 0 2255 0 2255 -2150 0 -2150 0 0
-2255z m2415 1650 c219 -25 397 -84 516 -172 113 -84 217 -220 252 -329 43
-137 42 -111 39 -1164 l-4 -1005 -23 -97 c-32 -131 -77 -209 -175 -301 -82
-77 -201 -148 -318 -188 -292 -101 -806 -100 -1082 2 -168 62 -306 156 -387
263 -61 81 -86 142 -114 279 -18 91 -20 126 -16 322 5 255 20 331 88 467 55
109 109 179 183 234 83 63 128 84 312 148 87 30 224 78 304 106 80 28 181 64
225 80 290 102 327 120 384 186 19 21 47 66 63 101 29 62 30 66 26 196 -4 152
-22 202 -94 272 -90 88 -196 125 -379 132 -221 9 -351 -20 -439 -98 -71 -63
-126 -173 -126 -254 0 -17 -7 -41 -16 -53 -15 -22 -18 -22 -258 -22 -301 0
-282 -11 -273 152 18 344 159 532 501 672 181 74 521 104 811 71z"/>
<path d="M2673 2207 c-24 -38 -118 -77 -608 -247 -177 -61 -239 -95 -310 -172
-85 -91 -99 -130 -103 -279 -4 -144 8 -202 61 -289 40 -67 105 -115 194 -142
58 -18 96 -21 253 -21 167 -1 192 1 255 22 106 35 152 66 196 133 76 119 77
125 79 592 0 229 -1 416 -4 416 -3 0 -9 -6 -13 -13z"/>
</g>
</svg>
